<?xml version="1.0" encoding="UTF-8" standalone="no"?><svg xmlns="http://www.w3.org/2000/svg" xmlns:xlink="http://www.w3.org/1999/xlink" width="999.9999" height="191.4641" viewBox="0 0 937.4999 179.4976"><defs><linearGradient id="d"><stop offset="0" stop-color="green"/><stop offset="1" stop-color="#00d200"/></linearGradient><linearGradient id="a"><stop offset="0" stop-color="#676767"/><stop offset="1" stop-color="#e9e9e9"/></linearGradient><linearGradient id="b"><stop offset="0" stop-color="#eee" stop-opacity=".7208"/><stop offset="1" stop-color="#eee" stop-opacity="0"/></linearGradient><linearGradient id="c"><stop offset="0" stop-color="#676767"/><stop offset="1" stop-opacity="0"/></linearGradient><linearGradient id="U" x1="364.6865" x2="404.6458" y1="479.6057" y2="479.6057" gradientTransform="translate(.25 -1.25)" gradientUnits="userSpaceOnUse" xlink:href="#b"/><linearGradient id="T" x1="260.7422" x2="260.7422" y1="559.5703" y2="502.4414" gradientTransform="matrix(1.3278 0 0 1.44126 -7.5032 -679.9148)" gradientUnits="userSpaceOnUse" xlink:href="#d"/><linearGradient id="j" x1="260.7422" x2="260.7422" y1="559.5703" y2="502.4414" gradientTransform="matrix(.38728 0 0 .46236 362.4402 -153.4101)" gradientUnits="userSpaceOnUse" xlink:href="#d"/><linearGradient id="B" x1="260.7422" x2="260.7422" y1="559.5703" y2="502.4414" gradientTransform="matrix(.26971 0 0 .39749 514.5094 -118.769)" gradientUnits="userSpaceOnUse" xlink:href="#d"/><linearGradient id="C" x1="260.7422" x2="260.7422" y1="559.5703" y2="502.4414" gradientTransform="matrix(.29737 0 0 .42992 252.7978 -136.0896)" gradientUnits="userSpaceOnUse" xlink:href="#d"/><linearGradient id="i" x1="260.7422" x2="260.7422" y1="559.5703" y2="502.4414" gradientTransform="matrix(.38728 0 0 .46236 362.4402 -153.4101)" gradientUnits="userSpaceOnUse" xlink:href="#d"/><linearGradient id="E" x1="260.7422" x2="260.7422" y1="559.5703" y2="502.4414" gradientTransform="matrix(.29737 0 0 .42992 31.6063 -136.0896)" gradientUnits="userSpaceOnUse" xlink:href="#d"/><linearGradient id="D" x1="260.7422" x2="260.7422" y1="559.5703" y2="502.4414" gradientTransform="matrix(.26971 0 0 .39749 293.318 -118.769)" gradientUnits="userSpaceOnUse" xlink:href="#d"/><linearGradient id="l" x1="260.7422" x2="260.7422" y1="559.5703" y2="502.4414" gradientTransform="matrix(.38728 0 0 .46236 141.2488 -153.4101)" gradientUnits="userSpaceOnUse" xlink:href="#d"/><linearGradient id="k" x1="260.7422" x2="260.7422" y1="559.5703" y2="502.4414" gradientTransform="matrix(.38728 0 0 .46236 141.2488 -153.4101)" gradientUnits="userSpaceOnUse" xlink:href="#d"/><linearGradient id="G" x1="260.7422" x2="260.7422" y1="559.5703" y2="502.4414" gradientTransform="matrix(.29737 0 0 .42992 211.7821 -136.0896)" gradientUnits="userSpaceOnUse" xlink:href="#d"/><linearGradient id="F" x1="260.7422" x2="260.7422" y1="559.5703" y2="502.4414" gradientTransform="matrix(.26971 0 0 .39749 473.4937 -118.769)" gradientUnits="userSpaceOnUse" xlink:href="#d"/><linearGradient id="n" x1="260.7422" x2="260.7422" y1="559.5703" y2="502.4414" gradientTransform="matrix(.38728 0 0 .46236 321.4246 -153.4101)" gradientUnits="userSpaceOnUse" xlink:href="#d"/><linearGradient id="m" x1="260.7422" x2="260.7422" y1="559.5703" y2="502.4414" gradientTransform="matrix(.38728 0 0 .46236 321.4246 -153.4101)" gradientUnits="userSpaceOnUse" xlink:href="#d"/><linearGradient id="S" x1="260.7422" x2="260.7422" y1="559.5703" y2="502.4414" gradientTransform="matrix(.26971 0 0 .39749 551.1304 -118.769)" gradientUnits="userSpaceOnUse" xlink:href="#d"/><linearGradient id="R" x1="260.7422" x2="260.7422" y1="559.5703" y2="502.4414" gradientTransform="matrix(.26971 0 0 .39749 551.1304 -118.769)" gradientUnits="userSpaceOnUse" xlink:href="#d"/><linearGradient id="Q" x1="260.7422" x2="260.7422" y1="559.5703" y2="502.4414" gradientTransform="matrix(.26971 0 0 .39749 592.146 -118.769)" gradientUnits="userSpaceOnUse" xlink:href="#d"/><linearGradient id="P" x1="260.7422" x2="260.7422" y1="559.5703" y2="502.4414" gradientTransform="matrix(.26971 0 0 .39749 551.1304 -118.769)" gradientUnits="userSpaceOnUse" xlink:href="#d"/><linearGradient id="O" x1="260.7422" x2="260.7422" y1="559.5703" y2="502.4414" gradientTransform="matrix(.26971 0 0 .39749 551.1304 -118.769)" gradientUnits="userSpaceOnUse" xlink:href="#d"/><linearGradient id="N" x1="260.7422" x2="260.7422" y1="559.5703" y2="502.4414" gradientTransform="matrix(.26971 0 0 .39749 592.146 -118.769)" gradientUnits="userSpaceOnUse" xlink:href="#d"/><linearGradient id="M" x1="260.7422" x2="260.7422" y1="559.5703" y2="502.4414" gradientTransform="matrix(.26971 0 0 .39749 551.1304 -118.769)" gradientUnits="userSpaceOnUse" xlink:href="#d"/><linearGradient id="L" x1="260.7422" x2="260.7422" y1="559.5703" y2="502.4414" gradientTransform="matrix(.26971 0 0 .39749 551.1304 -118.769)" gradientUnits="userSpaceOnUse" xlink:href="#d"/><linearGradient id="K" x1="260.7422" x2="260.7422" y1="559.5703" y2="502.4414" gradientTransform="matrix(.26971 0 0 .39749 592.146 -118.769)" gradientUnits="userSpaceOnUse" xlink:href="#d"/><linearGradient id="J" x1="260.7422" x2="260.7422" y1="559.5703" y2="502.4414" gradientTransform="matrix(.26971 0 0 .39749 551.1304 -118.769)" gradientUnits="userSpaceOnUse" xlink:href="#d"/><linearGradient id="I" x1="260.7422" x2="260.7422" y1="559.5703" y2="502.4414" gradientTransform="matrix(.26971 0 0 .39749 551.1304 -118.769)" gradientUnits="userSpaceOnUse" xlink:href="#d"/><linearGradient id="H" x1="260.7422" x2="260.7422" y1="559.5703" y2="502.4414" gradientTransform="matrix(.26971 0 0 .39749 592.146 -118.769)" gradientUnits="userSpaceOnUse" xlink:href="#d"/><linearGradient id="z" x1="260.7422" x2="260.7422" y1="559.5703" y2="502.4414" gradientTransform="matrix(.38728 0 0 .46236 549.9402 -151.9453)" gradientUnits="userSpaceOnUse" xlink:href="#d"/><linearGradient id="y" x1="260.7422" x2="260.7422" y1="559.5703" y2="502.4414" gradientTransform="matrix(.38728 0 0 .46236 549.9402 -151.9453)" gradientUnits="userSpaceOnUse" xlink:href="#d"/><linearGradient id="x" x1="260.7422" x2="260.7422" y1="559.5703" y2="502.4414" gradientTransform="matrix(.38728 0 0 .46236 549.9402 -151.9453)" gradientUnits="userSpaceOnUse" xlink:href="#d"/><linearGradient id="w" x1="260.7422" x2="260.7422" y1="559.5703" y2="502.4414" gradientTransform="matrix(.38728 0 0 .46236 549.9402 -151.9453)" gradientUnits="userSpaceOnUse" xlink:href="#d"/><linearGradient id="v" x1="260.7422" x2="260.7422" y1="559.5703" y2="502.4414" gradientTransform="matrix(.38728 0 0 .46236 590.9559 -151.9453)" gradientUnits="userSpaceOnUse" xlink:href="#d"/><linearGradient id="u" x1="260.7422" x2="260.7422" y1="559.5703" y2="502.4414" gradientTransform="matrix(.38728 0 0 .46236 590.9559 -151.9453)" gradientUnits="userSpaceOnUse" xlink:href="#d"/><linearGradient id="t" x1="260.7422" x2="260.7422" y1="559.5703" y2="502.4414" gradientTransform="matrix(.38728 0 0 .46236 549.9402 -151.9453)" gradientUnits="userSpaceOnUse" xlink:href="#d"/><linearGradient id="s" x1="260.7422" x2="260.7422" y1="559.5703" y2="502.4414" gradientTransform="matrix(.38728 0 0 .46236 549.9402 -151.9453)" gradientUnits="userSpaceOnUse" xlink:href="#d"/><linearGradient id="r" x1="260.7422" x2="260.7422" y1="559.5703" y2="502.4414" gradientTransform="matrix(.38728 0 0 .46236 549.9402 -151.9453)" gradientUnits="userSpaceOnUse" xlink:href="#d"/><linearGradient id="q" x1="260.7422" x2="260.7422" y1="559.5703" y2="502.4414" gradientTransform="matrix(.38728 0 0 .46236 549.9402 -151.9453)" gradientUnits="userSpaceOnUse" xlink:href="#d"/><linearGradient id="p" x1="260.7422" x2="260.7422" y1="559.5703" y2="502.4414" gradientTransform="matrix(.38728 0 0 .46236 590.9559 -151.9453)" gradientUnits="userSpaceOnUse" xlink:href="#d"/><linearGradient id="o" x1="260.7422" x2="260.7422" y1="559.5703" y2="502.4414" gradientTransform="matrix(.38728 0 0 .46236 590.9559 -151.9453)" gradientUnits="userSpaceOnUse" xlink:href="#d"/><filter id="V" width="1.0803" height="1.0094" x="-.0402" y="-.0047" color-interpolation-filters="sRGB"><feGaussianBlur stdDeviation="1.183"/></filter><filter id="g" width="1.3217" height="1.067" x="-.1608" y="-.0335" color-interpolation-filters="sRGB"><feGaussianBlur stdDeviation="11.2013"/></filter><filter id="A" width="1.4766" height="5.1347" x="-.2383" y="-2.0674" color-interpolation-filters="sRGB"><feGaussianBlur stdDeviation="37.2369"/></filter><filter id="h" width="1.8144" height="4.1991" x="-.4072" y="-1.5996" color-interpolation-filters="sRGB"><feGaussianBlur stdDeviation="27.8347"/></filter><radialGradient id="e" cx="387.8564" cy="529.6807" r="89.4088" fx="387.8564" fy="529.6807" gradientTransform="matrix(.01008 1.44122 -27.66315 .19344 15051.607 -100.003)" gradientUnits="userSpaceOnUse" xlink:href="#a"/><radialGradient id="f" cx="387.8564" cy="529.6807" r="89.4088" fx="387.8564" fy="529.6807" gradientTransform="matrix(.99998 -.007 .13422 19.19376 -71.0816 -9634.1699)" gradientUnits="userSpaceOnUse" xlink:href="#c"/></defs><path fill="none" stroke="url(#e)" stroke-width="9.3321" d="M46.9914 625.2727h870.362V497.6201H47.09z" opacity=".468" transform="translate(-7.9642 -471.475)"/><path fill-opacity=".6429" stroke="url(#f)" stroke-width="11.675" d="M432.1426 776.6094V172.7188h-88.5703V776.541" filter="url(#g)" opacity=".3097" transform="matrix(0 1.53336 -1.45495 0 1159.3643 -504.9771)"/><path fill="#d8d8d8" fill-opacity=".7338" d="M39.0272 153.7977h870.362V26.145H39.1259"/><rect
     y="26.1451"
     x="39.125797"
     height="128.696"
     width="435"
     id="rect1137"
     style="fill:url(#T);stroke-width:0;stroke-dasharray:none;paint-order:stroke fill markers" />
     <g><g fill="none"><path stroke="#000" stroke-width=".844145982" d="M614.767 33.1612v25.2116"/><path stroke="#848484" stroke-width=".844145982" d="M614.767 33.1612v25.2116"/><path stroke="#f3f3f3" stroke-width=".844145982" d="M616.0282 33.1612v25.2116"/><path stroke="#000" stroke-width=".844145982" d="M591.5759 33.1612v25.2116"/><path stroke="#848484" stroke-width=".844145982" d="M591.5759 33.1612v25.2116"/><path stroke="#f3f3f3" stroke-width=".844145982" d="M592.837 33.1612v25.2116"/><path stroke="#000" stroke-width=".844145982" d="M568.3847 33.1612v25.2116"/><path stroke="#848484" stroke-width=".844145982" d="M568.3847 33.1612v25.2116"/><path stroke="#f3f3f3" stroke-width=".844145982" d="M569.6458 33.1612v25.2116"/><path stroke="#000" stroke-width=".844145982" d="M545.1935 33.1612v25.2116"/><path stroke="#848484" stroke-width=".844145982" d="M545.1935 33.1612v25.2116"/><path stroke="#f3f3f3" stroke-width=".844145982" d="M546.4546 33.1612v25.2116"/><path stroke="#000" stroke-width="1.229538906" d="M522.0023 33.1612v53.496"/><path stroke="#848484" stroke-width="1.229538906" d="M522.0023 33.1612v53.496"/><path stroke="#f3f3f3" stroke-width="1.229538906" d="M523.2634 33.1612v53.496"/><path stroke="#000" stroke-width=".844145982" d="M498.8111 33.1612v25.2116"/><path stroke="#848484" stroke-width=".844145982" d="M498.8111 33.1612v25.2116"/><path stroke="#f3f3f3" stroke-width=".844145982" d="M500.0722 33.1612v25.2116"/><path stroke="#000" stroke-width=".844145982" d="M475.62 33.1612v25.2116"/><path stroke="#848484" stroke-width=".844145982" d="M475.62 33.1612v25.2116"/><path stroke="#f3f3f3" stroke-width=".844145982" d="M476.881 33.1612v25.2116"/><path stroke="#000" stroke-width=".844145982" d="M429.2375 33.1612v25.2116"/><path stroke="#848484" stroke-width=".844145982" d="M429.2375 33.1612v25.2116"/><path stroke="#f3f3f3" stroke-width=".844145982" d="M430.4986 33.1612v25.2116"/><path stroke="#000" stroke-width=".844145982" d="M452.4287 33.1612v25.2116"/><path stroke="#848484" stroke-width=".844145982" d="M452.4287 33.1612v25.2116"/><path stroke="#f3f3f3" stroke-width=".844145982" d="M453.6898 33.1612v25.2116"/><path stroke="#000" stroke-width="1.229538906" d="M406.0463 33.1612v53.496"/><path stroke="#848484" stroke-width="1.229538906" d="M406.0463 33.1612v53.496"/><path stroke="#f3f3f3" stroke-width="1.229538906" d="M407.3074 33.1612v53.496"/><path stroke="#000" stroke-width=".844145982" d="M846.679 33.1612v25.2116"/><path stroke="#848484" stroke-width=".844145982" d="M846.679 33.1612v25.2116"/><path stroke="#f3f3f3" stroke-width=".844145982" d="M847.9401 33.1612v25.2116"/><path stroke="#000" stroke-width=".844145982" d="M823.4878 33.1612v25.2116"/><path stroke="#848484" stroke-width=".844145982" d="M823.4878 33.1612v25.2116"/><path stroke="#f3f3f3" stroke-width=".844145982" d="M824.749 33.1612v25.2116"/><path stroke="#000" stroke-width=".844145982" d="M800.2967 33.1612v25.2116"/><path stroke="#848484" stroke-width=".844145982" d="M800.2967 33.1612v25.2116"/><path stroke="#f3f3f3" stroke-width=".844145982" d="M801.5578 33.1612v25.2116"/><path stroke="#000" stroke-width=".844145982" d="M777.1054 33.1612v25.2116"/><path stroke="#848484" stroke-width=".844145982" d="M777.1054 33.1612v25.2116"/><path stroke="#f3f3f3" stroke-width=".844145982" d="M778.3665 33.1612v25.2116"/><path stroke="#000" stroke-width="1.229538906" d="M753.9142 33.1612v53.496"/><path stroke="#848484" stroke-width="1.229538906" d="M753.9142 33.1612v53.496"/><path stroke="#f3f3f3" stroke-width="1.229538906" d="M755.1753 33.1612v53.496"/><path stroke="#000" stroke-width=".844145982" d="M730.723 33.1612v25.2116"/><path stroke="#848484" stroke-width=".844145982" d="M730.723 33.1612v25.2116"/><path stroke="#f3f3f3" stroke-width=".844145982" d="M731.9842 33.1612v25.2116"/><path stroke="#000" stroke-width=".844145982" d="M707.5319 33.1612v25.2116"/><path stroke="#848484" stroke-width=".844145982" d="M707.5319 33.1612v25.2116"/><path stroke="#f3f3f3" stroke-width=".844145982" d="M708.793 33.1612v25.2116"/><path stroke="#000" stroke-width=".844145982" d="M661.1495 33.1612v25.2116"/><path stroke="#848484" stroke-width=".844145982" d="M661.1495 33.1612v25.2116"/><path stroke="#f3f3f3" stroke-width=".844145982" d="M662.4106 33.1612v25.2116"/><path stroke="#000" stroke-width=".844145982" d="M684.3407 33.1612v25.2116"/><path stroke="#848484" stroke-width=".844145982" d="M684.3407 33.1612v25.2116"/><path stroke="#f3f3f3" stroke-width=".844145982" d="M685.6018 33.1612v25.2116"/><path stroke="#000" stroke-width="1.229538906" d="M637.9583 33.1612v53.496"/><path stroke="#848484" stroke-width="1.229538906" d="M637.9583 33.1612v53.496"/><path stroke="#f3f3f3" stroke-width="1.229538906" d="M639.2194 33.1612v53.496"/><path stroke="#000" stroke-width=".844145982" d="M150.9432 33.1612v25.2116"/><path stroke="#848484" stroke-width=".844145982" d="M150.9432 33.1612v25.2116"/><path stroke="#f3f3f3" stroke-width=".844145982" d="M152.2043 33.1612v25.2116"/><path stroke="#000" stroke-width=".844145982" d="M127.752 33.1612v25.2116"/><path stroke="#848484" stroke-width=".844145982" d="M127.752 33.1612v25.2116"/><path stroke="#f3f3f3" stroke-width=".844145982" d="M129.0131 33.1612v25.2116"/><path stroke="#000" stroke-width=".844145982" d="M104.5608 33.1612v25.2116"/><path stroke="#848484" stroke-width=".844145982" d="M104.5608 33.1612v25.2116"/><path stroke="#f3f3f3" stroke-width=".844145982" d="M105.8219 33.1612v25.2116"/><path stroke="#000" stroke-width=".844145982" d="M81.3696 33.1612v25.2116"/><path stroke="#848484" stroke-width=".844145982" d="M81.3696 33.1612v25.2116"/><path stroke="#f3f3f3" stroke-width=".844145982" d="M82.6307 33.1612v25.2116"/><path stroke="#000" stroke-width="1.229538906" d="M58.1784 33.1612v53.496"/><path stroke="#848484" stroke-width="1.229538906" d="M58.1784 33.1612v53.496"/><path stroke="#f3f3f3" stroke-width="1.229538906" d="M59.4395 33.1612v53.496"/><path stroke="#000" stroke-width=".844145982" d="M382.8551 33.1612v25.2116"/><path stroke="#848484" stroke-width=".844145982" d="M382.8551 33.1612v25.2116"/><path stroke="#f3f3f3" stroke-width=".844145982" d="M384.1162 33.1612v25.2116"/><path stroke="#000" stroke-width=".844145982" d="M359.664 33.1612v25.2116"/><path stroke="#848484" stroke-width=".844145982" d="M359.664 33.1612v25.2116"/><path stroke="#f3f3f3" stroke-width=".844145982" d="M360.925 33.1612v25.2116"/><path stroke="#000" stroke-width=".844145982" d="M336.4728 33.1612v25.2116"/><path stroke="#848484" stroke-width=".844145982" d="M336.4728 33.1612v25.2116"/><path stroke="#f3f3f3" stroke-width=".844145982" d="M337.7339 33.1612v25.2116"/><path stroke="#000" stroke-width=".844145982" d="M313.2816 33.1612v25.2116"/><path stroke="#848484" stroke-width=".844145982" d="M313.2816 33.1612v25.2116"/><path stroke="#f3f3f3" stroke-width=".844145982" d="M314.5427 33.1612v25.2116"/><path stroke="#000" stroke-width="1.229538906" d="M290.0903 33.1612v53.496"/><path stroke="#848484" stroke-width="1.229538906" d="M290.0903 33.1612v53.496"/><path stroke="#f3f3f3" stroke-width="1.229538906" d="M291.3514 33.1612v53.496"/><path stroke="#000" stroke-width=".844145982" d="M266.8992 33.1612v25.2116"/><path stroke="#848484" stroke-width=".844145982" d="M266.8992 33.1612v25.2116"/><path stroke="#f3f3f3" stroke-width=".844145982" d="M268.1603 33.1612v25.2116"/><path stroke="#000" stroke-width=".844145982" d="M243.708 33.1612v25.2116"/><path stroke="#848484" stroke-width=".844145982" d="M243.708 33.1612v25.2116"/><path stroke="#f3f3f3" stroke-width=".844145982" d="M244.969 33.1612v25.2116"/><path stroke="#000" stroke-width=".844145982" d="M197.3256 33.1612v25.2116"/><path stroke="#848484" stroke-width=".844145982" d="M197.3256 33.1612v25.2116"/><path stroke="#f3f3f3" stroke-width=".844145982" d="M198.5867 33.1612v25.2116"/><path stroke="#000" stroke-width=".844145982" d="M220.5168 33.1612v25.2116"/><path stroke="#848484" stroke-width=".844145982" d="M220.5168 33.1612v25.2116"/><path stroke="#f3f3f3" stroke-width=".844145982" d="M221.7779 33.1612v25.2116"/><path stroke="#000" stroke-width="1.229538906" d="M174.1344 33.1612v53.496"/><path stroke="#848484" stroke-width="1.229538906" d="M174.1344 33.1612v53.496"/><path stroke="#f3f3f3" stroke-width="1.229538906" d="M175.3955 33.1612v53.496"/><path stroke="#000" stroke-width="1.229538906" d="M872.0974 33.1612v53.496"/><path stroke="#848484" stroke-width="1.229538906" d="M872.0974 33.1612v53.496"/><path stroke="#f3f3f3" stroke-width="1.229538906" d="M873.3585 33.1612v53.496"/></g></g><g><path fill="url(#U)" d="M423.0996 780.998V175.7149h-70.711v605.2833z" filter="url(#V)" transform="matrix(0 1.44145 -1.43623 0 1160.818 -481.8063)"/></g></svg>